<?xml version="1.0" standalone="no"?><!DOCTYPE svg PUBLIC "-//W3C//DTD SVG 1.1//EN" "http://www.w3.org/Graphics/SVG/1.1/DTD/svg11.dtd"><svg t="1523861164471" class="icon" style="" viewBox="0 0 1024 1024" version="1.1" xmlns="http://www.w3.org/2000/svg" p-id="6678" xmlns:xlink="http://www.w3.org/1999/xlink" width="24" height="24"><defs><style type="text/css"></style></defs><path d="M41.081 2.513h407.405c21.715 0 39.22 17.505 39.22 38.939v407.431c0 21.69-17.505 39.196-39.22 39.196h-407.405c-21.15 0-38.939-17.505-38.939-39.196v-407.431c0-21.434 17.788-38.939 38.939-38.939v0zM409.265 80.93v0h-328.706v329.014h328.707v-329.014h-0.001zM942.137 80.93v0h-328.733v329.014h328.733v-329.014zM574.465 2.513v0h407.149c21.715 0 39.504 17.505 39.504 38.939v407.433c0 21.69-17.788 39.196-39.504 39.196h-407.149c-21.69 0-39.477-17.505-39.477-39.196v-407.433c0-21.434 17.788-38.939 39.477-38.939v0zM80.559 942.791v0h328.707v-328.71h-328.707v328.71zM448.487 1021.207v0h-407.405c-21.15 0-38.939-17.505-38.939-39.196v-407.431c0-21.125 17.788-39.22 38.939-39.22h407.405c21.715 0 39.22 18.096 39.22 39.22v407.431c0 21.689-17.505 39.196-39.22 39.196v0zM981.614 1021.207v0h-407.149c-21.69 0-39.477-17.505-39.477-39.196v-407.433c0-21.125 17.788-39.22 39.477-39.22h407.149c21.715 0 39.504 18.096 39.504 39.22v407.431c0 21.69-17.788 39.197-39.504 39.197v0zM613.405 942.791v0h328.733v-328.71h-328.733v328.71z" p-id="6679" fill="#bd9e58"></path></svg>
