<?xml version="1.0" standalone="no"?><!DOCTYPE svg PUBLIC "-//W3C//DTD SVG 1.1//EN" "http://www.w3.org/Graphics/SVG/1.1/DTD/svg11.dtd"><svg t="1523361888393" class="icon" style="" viewBox="0 0 1024 1024" version="1.1" xmlns="http://www.w3.org/2000/svg" p-id="2011" xmlns:xlink="http://www.w3.org/1999/xlink" width="16" height="16"><defs><style type="text/css"></style></defs><path d="M506.592 951.68c-242.624 0-440-197.408-440-440 0-242.656 197.376-440 440-440s440 197.344 440 440c0 242.592-197.376 440-440 440m0-944C228.672 7.68 2.592 233.696 2.592 511.68c0 277.888 226.08 504 504 504 277.92 0 504-226.112 504-504 0-277.952-226.08-504-504-504" p-id="2012" fill="#bdc0c0"></path><path d="M534.144 489.664V201.216c0.032-0.32 0.224-0.576 0.224-0.896a32.224 32.224 0 0 0-64.448-2.56c0 0.512 0.224 0.896 0.224 1.376v316c-0.544 2.56-1.376 5.056-1.248 7.776 0.64 16.288 13.376 28.736 29.152 30.272 0.992 0.128 1.824 0.64 2.88 0.704 0.224 0 0.416-0.128 0.672-0.128 0.256 0 0.448 0.128 0.704 0.128 0.32-0.032 0.576-0.224 0.896-0.224H823.68c0.48 0 0.864 0.224 1.344 0.224a32.256 32.256 0 0 0-2.528-64.448c-0.32 0-0.608 0.192-0.928 0.224h-287.36z" p-id="2013" fill="#bdc0c0"></path></svg>