<?xml version="1.0" standalone="no"?><!DOCTYPE svg PUBLIC "-//W3C//DTD SVG 1.1//EN" "http://www.w3.org/Graphics/SVG/1.1/DTD/svg11.dtd"><svg t="1523861275126" class="icon" style="" viewBox="0 0 1024 1024" version="1.1" xmlns="http://www.w3.org/2000/svg" p-id="11068" xmlns:xlink="http://www.w3.org/1999/xlink" width="24" height="24"><defs><style type="text/css"></style></defs><path d="M896 896c0-35.376-28.626-64-64-64V448c35.376 0 64-28.626 64-64h128L512 0 0 384h128c0 35.376 28.626 64 64 64v384c-35.376 0-64 28.626-64 64-70.688 0-128 57.312-128 128h1024c0-70.688-57.312-128-128-128zM512 128c53 0 96 43 96 96s-43 96-96 96-96-43-96-96 43-96 96-96z m-128 768c0-35.376-28.626-64-64-64V448c35.376 0 64-28.626 64-64h256c0 35.376 28.626 64 64 64v384c-35.376 0-64 28.626-64 64H384z" p-id="11069" fill="#ced0d5"></path></svg>