<?xml version="1.0" standalone="no"?><!DOCTYPE svg PUBLIC "-//W3C//DTD SVG 1.1//EN" "http://www.w3.org/Graphics/SVG/1.1/DTD/svg11.dtd"><svg t="1523331081497" class="icon" style="" viewBox="0 0 1024 1024" version="1.1" xmlns="http://www.w3.org/2000/svg" p-id="1932" xmlns:xlink="http://www.w3.org/1999/xlink" width="24" height="24"><defs><style type="text/css"></style></defs><path d="M251.254418 224.735437l695.848215 0 0 52.188616-695.848215 0 0-52.188616Z" p-id="1933" fill="#bd9e58"></path><path d="M251.254418 485.678518l695.848215 0 0 52.188616-695.848215 0 0-52.188616Z" p-id="1934" fill="#bd9e58"></path><path d="M251.254418 746.621599l695.848215 0 0 52.188616-695.848215 0 0-52.188616Z" p-id="1935" fill="#bd9e58"></path><path d="M77.292364 224.735437l52.188616 0 0 52.188616-52.188616 0 0-52.188616Z" p-id="1936" fill="#bd9e58"></path><path d="M77.292364 485.678518l52.188616 0 0 52.188616-52.188616 0 0-52.188616Z" p-id="1937" fill="#bd9e58"></path><path d="M77.292364 746.621599l52.188616 0 0 52.188616-52.188616 0 0-52.188616Z" p-id="1938" fill="#bd9e58"></path></svg>
